<svg width="19" height="19" viewBox="0 0 19 19" fill="none" xmlns="http://www.w3.org/2000/svg">
<path d="M7.12499 9.50006L8.70832 11.0834L11.875 7.91673M15.8333 10.2917C15.8333 14.25 13.0625 16.2292 9.76916 17.3771C9.5967 17.4356 9.40937 17.4328 9.23874 17.3692C5.93749 16.2292 3.16666 14.25 3.16666 10.2917V4.75003C3.16666 4.54007 3.25006 4.3387 3.39853 4.19024C3.547 4.04177 3.74836 3.95836 3.95832 3.95836C5.54166 3.95836 7.52082 3.00836 8.89832 1.80503C9.06604 1.66174 9.27939 1.58301 9.49999 1.58301C9.72059 1.58301 9.93394 1.66174 10.1017 1.80503C11.4871 3.01628 13.4583 3.95836 15.0417 3.95836C15.2516 3.95836 15.453 4.04177 15.6015 4.19024C15.7499 4.3387 15.8333 4.54007 15.8333 4.75003V10.2917Z" stroke="#09090B" stroke-width="2" stroke-linecap="round" stroke-linejoin="round"/>
</svg>
